<svg width="118" height="85" viewBox="0 0 118 85" fill="none" xmlns="http://www.w3.org/2000/svg">
<g clip-path="url(#clip0_311_1253)">
<g filter="url(#filter0_d_311_1253)">
<path d="M10 40.7685V35.2479L16.3066 31.0013H22.4161V37.7959H25.7664V20.8095L28.3285 17.8369H34.2409V35.8849H37.3942L38.9708 34.6233V20.3972L42.0255 17.8369H46.0657V24.6314L49.8102 21.2342H64V26.1178L61.2409 28.6397H51.4419L46.0657 34.0411H61.2409V39.0271L58.2847 41.9363V63.2479H62.0292V68.9807L54.7372 76.8369H48.8248V70.467H38.3796V44.3781H34.2409V70.9192L31.8759 75.5904H25.7664V44.3781H22.4161L19.3613 47.563H14.1387V40.7685H10Z" fill="url(#paint0_linear_311_1253)"/>
<path d="M16.3066 40.7685V35.2479M16.3066 40.7685L19.3613 38.0082V47.563M16.3066 40.7685H14.1387M16.3066 35.2479H10M16.3066 35.2479L22.4161 31.0013M10 35.2479V40.7685H14.1387M10 35.2479L16.3066 31.0013H22.4161M22.4161 31.0013V37.7959H25.7664V20.8095M25.7664 20.8095H31.8759M25.7664 20.8095L28.3285 17.8369H34.2409M31.8759 20.8095V37.7959H38.9708L43.1095 34.6233V20.3972M31.8759 20.8095L34.2409 17.8369M19.3613 47.563H14.1387V40.7685M19.3613 47.563L22.4161 44.3781H25.7664V75.5904H31.8759M31.8759 75.5904V44.3781H34.2409M31.8759 75.5904L34.2409 70.9192V44.3781M54.7372 40.7685V76.8369M54.7372 40.7685L61.2409 34.0411M54.7372 40.7685H48.8248M48.8248 40.7685L51.4419 37.7959H46.6569L41.927 41.9363M48.8248 40.7685V42.7665M54.7372 76.8369H48.8248V70.467M54.7372 76.8369L62.0292 68.9807V63.2479M61.2409 34.0411H46.0657L51.4419 28.6397H61.2409M61.2409 34.0411V39.0271L58.2847 41.9363V63.2479M61.2409 28.6397V23.8616M61.2409 28.6397L64 26.1177V21.2342M61.2409 23.8616H50.9927L46.0657 28.6397C46.0657 28.6397 46.0657 26.4557 46.0657 24.6314M61.2409 23.8616L64 21.2342M46.0657 17.8369C44.4494 18.9978 43.1095 20.3972 43.1095 20.3972M46.0657 17.8369C44.9112 17.8369 42.0255 17.8369 42.0255 17.8369L38.9708 20.3972M46.0657 17.8369C46.0657 18.9978 46.0657 23.4706 46.0657 24.6314M43.1095 20.3972H38.9708M34.2409 17.8369V35.8849H37.3942L38.9708 34.6233V20.3972M62.0292 63.2479L58.2847 67.4944V63.2479M62.0292 63.2479H58.2847M46.6569 63.2479V42.7665H48.8248M46.6569 63.2479H48.8248M46.6569 63.2479L41.927 67.4944M48.8248 67.4944H41.927M48.8248 67.4944V63.2479M48.8248 67.4944V70.467M41.927 67.4944V42.7665V41.9363M41.927 41.9363L38.9708 44.3781H38.3796M48.8248 63.2479V42.7665M38.3796 44.3781V70.467H48.8248M38.3796 44.3781H34.2409M64 21.2342H49.8102C49.8102 21.2342 47.528 23.3047 46.0657 24.6314" stroke="#F4EFE9"/>
</g>
<g filter="url(#filter1_d_311_1253)">
<path d="M92.1501 62.9743L72.9142 72.9401L70.0992 72.1096V69.5144L67.2842 71.0715L64 69.6182V65.6734L69.7782 62.3057L73 60.5L76.9021 61.9778L91.5 55L100.126 57.9914V62.1439L96.1381 64.2201L92.1501 62.9743Z" fill="url(#paint1_linear_311_1253)" fill-opacity="0.5"/>
<path d="M72.9142 72.9401L92.1501 62.9743L96.1381 64.2201M72.9142 72.9401V67.9572L70.0992 69.5144M72.9142 72.9401L70.0992 72.1096V69.5144M67.2842 71.0715V66.9191M67.2842 71.0715L64 69.6182V65.6734M67.2842 71.0715L70.0992 69.5144M67.2842 66.9191L64 65.6734M67.2842 66.9191L71.2721 64.6353L76.9021 61.9778M96.1381 60.0677L92.1501 58.6143L76.9021 66.9191V64.4277V61.9778M96.1381 60.0677V64.2201M96.1381 60.0677L100.126 57.9914M96.1381 64.2201L100.126 62.1439V57.9914M100.126 57.9914L91.5 55L76.9021 61.9778M64 65.6734L69.7782 62.3057L73 60.5L76.9021 61.9778" stroke="#F4EFE9"/>
<path d="M82.815 61.2286L81.3463 60.687L80 60.1905V58.7787V57.2838L84.2225 55L85.8687 55.6622L86.8029 56.0381V57.715V58.9448L82.815 61.2286Z" fill="url(#paint2_linear_311_1253)" fill-opacity="0.5"/>
<path d="M80 57.2838L82.815 58.3219M80 57.2838L84.2225 55L85.8687 55.6622L86.8029 56.0381M80 57.2838V58.7787V60.1905L81.3463 60.687L82.815 61.2286M82.815 58.3219V61.2286M82.815 58.3219L86.8029 56.0381M82.815 61.2286L86.8029 58.9448V57.715V56.0381" stroke="#F4EFE9"/>
<path d="M92.8407 50.8006L70.488 63.1338L67.6431 61.8642V58.4182L86.6768 48.0801V46.6511L67.0335 57.6927L63.9854 56.0604V52.9771L86.6768 40.8253V39.4348L69.8783 48.8056L66.627 47.3546V43.9086L89.3862 31.5754L92.8407 32.3009V40.0998L95.8888 38.6489V42.639L92.8407 44.2713V50.8006Z" fill="url(#paint3_linear_311_1253)" fill-opacity="0.5"/>
<path d="M69.8783 48.8056V45.1782M69.8783 48.8056L66.627 47.3546V43.9086M69.8783 48.8056L86.6768 39.4348M89.3862 41.9135L67.0335 54.428M89.3862 41.9135V37.9234L86.6768 39.4348M89.3862 41.9135L86.6768 40.8253M67.0335 54.428V57.6927M67.0335 54.428L63.9854 52.9771M67.0335 57.6927L63.9854 56.0604V52.9771M67.0335 57.6927L86.6768 46.6511M89.3862 49.3497V45.1782L86.6768 46.6511M89.3862 49.3497L70.488 59.8691M89.3862 49.3497L86.6768 48.0801M70.488 59.8691V63.1338M70.488 59.8691L67.6431 58.4182M70.488 63.1338L92.8407 50.8006V44.2713L95.8888 42.639V38.6489L92.8407 40.0998V32.3009M70.488 63.1338L67.6431 61.8642V58.4182M92.8407 32.3009L69.8783 45.1782M92.8407 32.3009L89.3862 31.5754L66.627 43.9086M69.8783 45.1782L66.627 43.9086M63.9854 52.9771L86.6768 40.8253M86.6768 40.8253V39.4348M86.6768 48.0801V46.6511M86.6768 48.0801L67.6431 58.4182" stroke="#F4EFE9"/>
<path d="M77.0664 36.2732L67.6344 41.126L63.9854 39.8679V35.9138L69.8301 33.0381V27.1252L68.2426 28.1853L63.9854 26.3488V21.4448L68.7168 18.9929V13.8069L72.8916 11.6501L77.0664 13.0915V22.1638L81.2412 20.1663V6.97704L85.416 5L89.0582 6.43785V6.97704L91.759 5.53919L93.989 6.43785V10.0325L89.8692 12.0095V13.0915L96.8272 15.4292V20.2189L90.5965 23.5123C91.784 23.8535 94.5972 24.7705 94.5972 24.7705V28.5958L85.416 33.7047L81.2412 32.2335V28.5958L77.0664 30.7623V33.4595V36.2732Z" fill="url(#paint4_linear_311_1253)" fill-opacity="0.5"/>
<path d="M68.2426 23.5123L72.8916 20.9961V18.2573V15.4292M68.2426 23.5123V28.1853M68.2426 23.5123L63.9854 21.4448M72.8916 15.4292L77.0664 13.0915M72.8916 15.4292L68.7168 13.8069M77.0664 13.0915L72.8916 11.6501L68.7168 13.8069M77.0664 13.0915V22.1638M77.0664 22.1638L81.2412 20.1663M77.0664 22.1638V25.8417L96.8272 15.4292M68.2426 28.1853L63.9854 26.3488V21.4448M68.2426 28.1853L69.8301 27.1252M67.6344 37.1719L73.1699 34.326V32.4787V25.1228L69.8301 27.1252M67.6344 37.1719V41.126M67.6344 37.1719L63.9854 35.9138M67.6344 41.126L77.0664 36.2732V33.4595V30.7623L81.2412 28.5958M67.6344 41.126L63.9854 39.8679V35.9138M96.8272 15.4292L89.8692 13.0915V12.0095L93.989 10.0325V6.43785M96.8272 15.4292V20.2189L89.8692 23.8968M63.9854 35.9138L69.8301 33.0381V27.1252M63.9854 21.4448L68.7168 18.9929V13.8069M89.0582 6.43785L85.416 5L81.2412 6.97704M89.0582 6.43785L85.416 8.41492M89.0582 6.43785V6.97704M81.2412 6.97704L85.416 8.41492M81.2412 6.97704V20.1663M85.416 8.41492V15.2983L88.4775 16.2791L81.2412 20.1663M81.2412 28.5958V32.2335L85.416 33.7047M81.2412 28.5958L85.416 26.3488M85.416 33.7047V26.3488M85.416 33.7047L94.5972 28.5958V24.7705M85.416 26.3488L89.8692 23.8968M89.8692 23.8968V27.4723L94.5972 24.7705M94.5972 24.7705C94.5972 24.7705 91.784 23.8535 90.5965 23.5123M93.989 6.43785L89.0582 9.13384V6.97704M93.989 6.43785L91.759 5.53919L89.0582 6.97704" stroke="#F4EFE9"/>
</g>
<g filter="url(#filter2_i_311_1253)">
<path d="M2 28C2 24.134 5.13401 21 9 21H10C13.866 21 17 24.134 17 28V28C17 31.866 13.866 35 10 35H9C5.13401 35 2 31.866 2 28V28Z" fill="#F4EFE9" fill-opacity="0.72"/>
</g>
<g filter="url(#filter3_i_311_1253)">
<path d="M100 43.5C100 38.8056 103.806 35 108.5 35H109.5C114.194 35 118 38.8056 118 43.5V43.5C118 48.1944 114.194 52 109.5 52H108.5C103.806 52 100 48.1944 100 43.5V43.5Z" fill="#F4EFE9" fill-opacity="0.72"/>
</g>
<g filter="url(#filter4_i_311_1253)">
<path d="M40 5C40 2.23858 42.2386 0 45 0H46C48.7614 0 51 2.23858 51 5V5C51 7.76142 48.7614 10 46 10H45C42.2386 10 40 7.76142 40 5V5Z" fill="#F4EFE9" fill-opacity="0.72"/>
</g>
<g filter="url(#filter5_i_311_1253)">
<path d="M51 75.5C51 70.2533 55.2533 66 60.5 66H61.5C66.7467 66 71 70.2533 71 75.5V75.5C71 80.7467 66.7467 85 61.5 85H60.5C55.2533 85 51 80.7467 51 75.5V75.5Z" fill="#F4EFE9" fill-opacity="0.72"/>
</g>
</g>
<defs>
<filter id="filter0_d_311_1253" x="0.6" y="10.4369" width="64.8" height="69.8" filterUnits="userSpaceOnUse" color-interpolation-filters="sRGB">
<feFlood flood-opacity="0" result="BackgroundImageFix"/>
<feColorMatrix in="SourceAlpha" type="matrix" values="0 0 0 0 0 0 0 0 0 0 0 0 0 0 0 0 0 0 127 0" result="hardAlpha"/>
<feOffset dx="-4" dy="-2"/>
<feGaussianBlur stdDeviation="2.45"/>
<feComposite in2="hardAlpha" operator="out"/>
<feColorMatrix type="matrix" values="0 0 0 0 0 0 0 0 0 0 0 0 0 0 0 0 0 0 0.25 0"/>
<feBlend mode="normal" in2="BackgroundImageFix" result="effect1_dropShadow_311_1253"/>
<feBlend mode="normal" in="SourceGraphic" in2="effect1_dropShadow_311_1253" result="shape"/>
</filter>
<filter id="filter1_d_311_1253" x="56.4854" y="1.45532" width="45.1406" height="77.0212" filterUnits="userSpaceOnUse" color-interpolation-filters="sRGB">
<feFlood flood-opacity="0" result="BackgroundImageFix"/>
<feColorMatrix in="SourceAlpha" type="matrix" values="0 0 0 0 0 0 0 0 0 0 0 0 0 0 0 0 0 0 127 0" result="hardAlpha"/>
<feOffset dx="-3" dy="1"/>
<feGaussianBlur stdDeviation="2"/>
<feComposite in2="hardAlpha" operator="out"/>
<feColorMatrix type="matrix" values="0 0 0 0 0 0 0 0 0 0 0 0 0 0 0 0 0 0 0.25 0"/>
<feBlend mode="normal" in2="BackgroundImageFix" result="effect1_dropShadow_311_1253"/>
<feBlend mode="normal" in="SourceGraphic" in2="effect1_dropShadow_311_1253" result="shape"/>
</filter>
<filter id="filter2_i_311_1253" x="2" y="20" width="19" height="15" filterUnits="userSpaceOnUse" color-interpolation-filters="sRGB">
<feFlood flood-opacity="0" result="BackgroundImageFix"/>
<feBlend mode="normal" in="SourceGraphic" in2="BackgroundImageFix" result="shape"/>
<feColorMatrix in="SourceAlpha" type="matrix" values="0 0 0 0 0 0 0 0 0 0 0 0 0 0 0 0 0 0 127 0" result="hardAlpha"/>
<feOffset dx="4" dy="-1"/>
<feGaussianBlur stdDeviation="2.1"/>
<feComposite in2="hardAlpha" operator="arithmetic" k2="-1" k3="1"/>
<feColorMatrix type="matrix" values="0 0 0 0 0.0330992 0 0 0 0 0.248246 0 0 0 0 0.284104 0 0 0 0.33 0"/>
<feBlend mode="normal" in2="shape" result="effect1_innerShadow_311_1253"/>
</filter>
<filter id="filter3_i_311_1253" x="100" y="34" width="22" height="18" filterUnits="userSpaceOnUse" color-interpolation-filters="sRGB">
<feFlood flood-opacity="0" result="BackgroundImageFix"/>
<feBlend mode="normal" in="SourceGraphic" in2="BackgroundImageFix" result="shape"/>
<feColorMatrix in="SourceAlpha" type="matrix" values="0 0 0 0 0 0 0 0 0 0 0 0 0 0 0 0 0 0 127 0" result="hardAlpha"/>
<feOffset dx="4" dy="-1"/>
<feGaussianBlur stdDeviation="2.1"/>
<feComposite in2="hardAlpha" operator="arithmetic" k2="-1" k3="1"/>
<feColorMatrix type="matrix" values="0 0 0 0 0.0330992 0 0 0 0 0.248246 0 0 0 0 0.284104 0 0 0 0.33 0"/>
<feBlend mode="normal" in2="shape" result="effect1_innerShadow_311_1253"/>
</filter>
<filter id="filter4_i_311_1253" x="40" y="-1" width="15" height="11" filterUnits="userSpaceOnUse" color-interpolation-filters="sRGB">
<feFlood flood-opacity="0" result="BackgroundImageFix"/>
<feBlend mode="normal" in="SourceGraphic" in2="BackgroundImageFix" result="shape"/>
<feColorMatrix in="SourceAlpha" type="matrix" values="0 0 0 0 0 0 0 0 0 0 0 0 0 0 0 0 0 0 127 0" result="hardAlpha"/>
<feOffset dx="4" dy="-1"/>
<feGaussianBlur stdDeviation="2.1"/>
<feComposite in2="hardAlpha" operator="arithmetic" k2="-1" k3="1"/>
<feColorMatrix type="matrix" values="0 0 0 0 0.0330992 0 0 0 0 0.248246 0 0 0 0 0.284104 0 0 0 0.33 0"/>
<feBlend mode="normal" in2="shape" result="effect1_innerShadow_311_1253"/>
</filter>
<filter id="filter5_i_311_1253" x="51" y="65" width="24" height="20" filterUnits="userSpaceOnUse" color-interpolation-filters="sRGB">
<feFlood flood-opacity="0" result="BackgroundImageFix"/>
<feBlend mode="normal" in="SourceGraphic" in2="BackgroundImageFix" result="shape"/>
<feColorMatrix in="SourceAlpha" type="matrix" values="0 0 0 0 0 0 0 0 0 0 0 0 0 0 0 0 0 0 127 0" result="hardAlpha"/>
<feOffset dx="4" dy="-1"/>
<feGaussianBlur stdDeviation="2.1"/>
<feComposite in2="hardAlpha" operator="arithmetic" k2="-1" k3="1"/>
<feColorMatrix type="matrix" values="0 0 0 0 0.0330992 0 0 0 0 0.248246 0 0 0 0 0.284104 0 0 0 0.33 0"/>
<feBlend mode="normal" in2="shape" result="effect1_innerShadow_311_1253"/>
</filter>
<linearGradient id="paint0_linear_311_1253" x1="37" y1="17.8369" x2="37" y2="76.8369" gradientUnits="userSpaceOnUse">
<stop offset="0.22" stop-color="#ACD3DE"/>
<stop offset="0.61" stop-color="#80B7BE"/>
<stop offset="1" stop-color="#D3D3D0"/>
</linearGradient>
<linearGradient id="paint1_linear_311_1253" x1="96.781" y1="55.0496" x2="93.4127" y2="74.869" gradientUnits="userSpaceOnUse">
<stop offset="0.03" stop-color="#B2CED2"/>
<stop offset="0.185" stop-color="#7EB0B7"/>
<stop offset="0.295" stop-color="#7DADB5"/>
<stop offset="0.55" stop-color="#80B7BE"/>
<stop offset="0.855" stop-color="#0C5A67"/>
</linearGradient>
<linearGradient id="paint2_linear_311_1253" x1="86.173" y1="55.0172" x2="84.153" y2="61.4641" gradientUnits="userSpaceOnUse">
<stop offset="0.03" stop-color="#B2CED2"/>
<stop offset="0.185" stop-color="#7EB0B7"/>
<stop offset="0.295" stop-color="#7DADB5"/>
<stop offset="0.55" stop-color="#80B7BE"/>
<stop offset="0.855" stop-color="#0C5A67"/>
</linearGradient>
<linearGradient id="paint3_linear_311_1253" x1="92.9348" y1="31.6627" x2="82.04" y2="63.8457" gradientUnits="userSpaceOnUse">
<stop offset="0.03" stop-color="#B2CED2"/>
<stop offset="0.185" stop-color="#7EB0B7"/>
<stop offset="0.295" stop-color="#7DADB5"/>
<stop offset="0.55" stop-color="#80B7BE"/>
<stop offset="0.855" stop-color="#0C5A67"/>
</linearGradient>
<linearGradient id="paint4_linear_311_1253" x1="93.7863" y1="5.09986" x2="80.2468" y2="41.066" gradientUnits="userSpaceOnUse">
<stop offset="0.03" stop-color="#B2CED2"/>
<stop offset="0.185" stop-color="#7EB0B7"/>
<stop offset="0.295" stop-color="#7DADB5"/>
<stop offset="0.55" stop-color="#80B7BE"/>
<stop offset="0.855" stop-color="#0C5A67"/>
</linearGradient>
<clipPath id="clip0_311_1253">
<rect width="118" height="85" fill="white"/>
</clipPath>
</defs>
</svg>
