<svg width="911" height="449" viewBox="0 0 911 449" fill="none" xmlns="http://www.w3.org/2000/svg">
<g filter="url(#filter0_i_183_963)">
<path d="M0 153.405C0 122.791 23.0468 97.0873 53.4786 93.7599L844.479 7.27333C879.986 3.39105 911 31.1992 911 66.9179V384.885C911 419.586 881.65 447.052 847.025 444.753L56.0254 392.239C24.5005 390.146 0 363.965 0 332.371V153.405Z" fill="#0C5A67"/>
</g>
<g filter="url(#filter1_i_183_963)">
<path d="M196.254 242.733L196.281 238.239C198.587 238.253 200.188 237.805 201.081 236.896C201.988 235.986 202.448 234.537 202.459 232.548L202.482 228.79C202.497 226.125 202.901 224.033 203.692 222.513C204.497 220.993 205.584 219.879 206.953 219.172C208.336 218.464 209.93 218.022 211.734 217.848C213.538 217.659 215.455 217.571 217.483 217.583L217.441 224.722C215.85 224.713 214.655 224.898 213.858 225.278C213.073 225.658 212.546 226.238 212.276 227.019C212.007 227.799 211.868 228.786 211.861 229.979L211.831 235.07C211.825 236.078 211.614 237.044 211.197 237.97C210.781 238.895 210.02 239.719 208.915 240.442C207.811 241.165 206.236 241.732 204.192 242.144C202.161 242.556 199.515 242.753 196.254 242.733ZM217.186 267.716C215.157 267.704 213.242 267.593 211.44 267.384C209.639 267.187 208.05 266.727 206.676 266.003C205.315 265.279 204.241 264.152 203.454 262.623C202.681 261.094 202.302 258.997 202.318 256.332L202.34 252.594C202.352 250.592 201.91 249.137 201.014 248.231C200.131 247.311 198.536 246.844 196.23 246.83L196.256 242.316C199.518 242.335 202.161 242.57 204.187 243.019C206.226 243.455 207.794 244.042 208.89 244.777C209.986 245.5 210.737 246.326 211.142 247.256C211.548 248.187 211.747 249.156 211.741 250.164L211.711 255.254C211.704 256.447 211.831 257.436 212.091 258.22C212.352 259.003 212.872 259.59 213.652 259.979C214.445 260.368 215.637 260.567 217.228 260.577L217.186 267.716ZM196.23 246.83L196.281 238.239L204.215 238.286L204.164 246.877L196.23 246.83ZM234.944 224.369L228.972 215.364L237.582 215.416L241.566 224.408L234.944 224.369ZM278.259 256.025L299.37 256.151L299.334 262.311L278.222 262.185L278.259 256.025ZM275.6 241.617L302.648 241.778L302.516 264.009L295.628 263.969L295.724 247.729L282.117 247.648L282.019 264.112L275.467 264.073L275.6 241.617ZM272.082 230.508C279.644 230.273 291.183 229.726 301.826 229.173L301.735 235.164C291.594 235.944 280.726 236.608 272.883 237.065L272.082 230.508ZM292.008 222.898L297.512 220.131C301.235 225.081 305.284 231.601 306.825 236.203L300.814 239.359C299.441 234.871 295.673 228.016 292.008 222.898ZM283.451 211.535L290.834 213.035C288.27 220.468 284.859 228.96 281.971 234.375L276.268 232.829C278.934 227.133 281.955 218.191 283.451 211.535ZM261.499 211.405L268.107 211.445L267.795 264.028L261.187 263.988L261.499 211.405ZM255.777 222.46L260.534 223.104C260.558 228.536 259.735 235.083 257.638 239.215L252.947 237.059C254.815 233.654 255.636 227.499 255.777 222.46ZM267.095 221.519L271.193 219.807C272.911 223.009 274.678 227.164 275.166 229.855L270.842 231.845C270.354 229.154 268.812 224.777 267.095 221.519ZM326.901 250.378L333.565 250.417L333.53 256.409C333.521 257.921 333.968 258.092 336.6 258.107C337.72 258.114 342.703 258.144 344.215 258.153C346.231 258.165 346.626 257.663 346.929 253.913C348.211 254.872 351.006 255.785 352.739 256.187C351.918 262.398 350.061 263.955 344.797 263.924C343.285 263.915 337.237 263.879 335.781 263.871C328.501 263.828 326.832 262.026 326.865 256.482L326.901 250.378ZM333.12 249.855L337.454 246.24C340.245 247.713 343.647 250.085 345.26 251.999L340.7 255.948C339.2 254.035 335.967 251.496 333.12 249.855ZM350.35 253.037L355.744 250.045C359.311 252.866 363.207 256.921 364.868 260.123L359.025 263.392C357.587 260.36 353.916 256.082 350.35 253.037ZM319.341 250.333L325.097 252.495C323.616 256.686 321.351 260.817 317.527 263.482L312.174 259.643C315.547 257.535 318.032 253.965 319.341 250.333ZM318.328 232.407L358.759 232.646L358.662 248.942L317.895 248.7L317.92 244.5L352.079 244.703L352.126 236.807L318.303 236.607L318.328 232.407ZM320.251 238.522L354.299 238.724L354.276 242.644L320.228 242.442L320.251 238.522ZM314.908 214.074L337.028 214.205L337.005 218.125L314.885 217.994L314.908 214.074ZM316.163 219.738L336.322 219.857L336.299 223.777L316.139 223.658L316.163 219.738ZM323.098 211.827L329.314 211.863L329.196 231.687L322.98 231.65L323.098 211.827ZM339.156 214.218L362.171 214.354L362.148 218.274L339.133 218.138L339.156 214.218ZM338.64 225.639L363.168 225.784L363.144 229.704L338.617 229.559L338.64 225.639ZM340.298 219.881L361.186 220.005L361.163 223.924L340.275 223.801L340.298 219.881ZM347.121 211.969L353.393 212.006L353.276 231.83L347.004 231.793L347.121 211.969ZM314.054 225.941C319.935 225.808 328.673 225.524 337.242 225.239L337.163 229.27C328.872 229.725 320.302 230.066 314.196 230.31L314.054 225.941ZM377.587 221.166L394.779 221.268L394.555 259.011L377.363 258.909L377.399 252.973L388.486 253.039L388.64 227.111L377.552 227.046L377.587 221.166ZM373.667 221.143L379.771 221.179L379.523 263.066L373.419 263.03L373.667 221.143ZM377.219 236.116L391.554 236.201L391.52 242.025L377.184 241.94L377.219 236.116ZM381.673 212.062L389.003 213.169C387.692 216.97 386.269 220.937 385.133 223.563L379.764 222.355C380.566 219.447 381.375 215.14 381.673 212.062ZM402.173 220.92L418.525 221.017L418.489 227.12L402.137 227.023L402.173 220.92ZM416.229 221.003L422.445 221.04C422.445 221.04 422.432 223.224 422.371 224.063C421.493 249.259 420.769 258.158 418.455 261.113C416.874 263.287 415.303 263.894 413.005 264.217C410.875 264.54 407.459 264.464 404.212 264.276C404.111 262.428 403.232 259.567 402.011 257.767C405.649 258.069 409.009 258.145 410.409 258.153C411.529 258.16 412.146 257.939 412.878 257.16C414.682 255.266 415.467 245.639 416.221 222.291L416.229 221.003ZM402.393 212.241L408.824 213.791C406.59 222.066 402.9 230.556 399.06 235.909C397.835 234.782 395.102 232.862 393.54 231.957C397.319 227.275 400.556 219.678 402.393 212.241ZM399.502 237.032L404.783 234.095C407.504 237.975 411.168 243.373 412.885 246.688L407.152 250.126C405.66 246.701 402.165 241.192 399.502 237.032ZM447.399 215.364L481.054 215.563L480.762 264.786L474.379 264.748L474.636 221.349L453.468 221.224L453.208 265.071L447.104 265.035L447.399 215.364ZM454.883 228.12L473.307 228.229L473.278 233.101L454.855 232.992L454.883 228.12ZM450.294 255.926L477.51 256.087L477.475 261.967L450.26 261.805L450.294 255.926ZM461.357 222.447L466.565 222.477L466.458 240.453L461.251 240.422L461.357 222.447ZM461.07 242.549L461.035 248.373L466.747 248.407L466.782 242.583L461.07 242.549ZM456.282 237.873L471.905 237.965L471.816 253.085L456.192 252.992L456.282 237.873ZM440.471 212.635L446.62 214.519C443.315 224.188 437.877 234.516 432.014 241.089C431.52 239.462 429.863 235.532 428.809 233.79C433.544 228.666 437.904 220.627 440.471 212.635ZM435.788 227.951L442.153 221.661L442.209 221.717L441.952 265.116L435.568 265.078L435.788 227.951ZM510.519 214.226L518.191 214.271C517.631 223.676 516.741 250.999 493.754 264.919C492.588 263.176 490.417 261.092 488.13 259.51C510.716 247.156 510.083 221.559 510.519 214.226ZM517.958 215.726C518.097 220.599 519.107 248.549 542.003 259.437C539.866 261.049 537.836 263.277 536.817 265.119C512.753 252.992 511.872 222.13 511.458 216.359L517.958 215.726ZM580.728 235.867L586.384 235.9L586.347 242.004L580.691 241.97L580.728 235.867ZM586.631 222.573L591.718 224.115C590.414 226.74 589.22 229.701 588.257 231.599L584.457 230.289C585.254 228.109 586.225 224.867 586.631 222.573ZM576.204 224.248L580.189 222.871C581.295 225.118 582.174 228.091 582.443 229.997L578.121 231.539C577.965 229.578 577.143 226.493 576.204 224.248ZM568.695 215.635L594.847 215.79L594.812 221.614L574.653 221.494L574.389 265.957L568.397 265.922L568.695 215.635ZM592.831 215.778L598.879 215.814L598.621 259.381C598.603 262.405 598.033 263.97 596.179 264.967C594.27 265.851 591.581 266.003 587.661 265.98C587.503 264.411 586.678 261.83 585.903 260.258C588.198 260.383 590.718 260.398 591.502 260.403C592.287 260.352 592.568 260.073 592.573 259.289L592.831 215.778ZM575.996 231.022L591.228 231.113L591.199 236.097L575.967 236.006L575.996 231.022ZM575.773 240.429L591.284 240.521L591.254 245.561L575.743 245.469L575.773 240.429ZM577.605 243.072L583.205 243.105L583.161 250.497C583.153 251.841 583.262 252.29 583.99 252.294C584.662 252.298 587.07 252.312 587.742 252.316C588.526 252.321 589.871 252.217 590.6 251.997C590.704 253.454 590.857 255.919 591.017 257.208C590.175 257.539 588.999 257.588 587.767 257.581C587.039 257.576 584.631 257.562 584.015 257.558C578.639 257.527 577.53 255.672 577.561 250.408L577.605 243.072ZM556.054 213.208L561.866 215.258C559.544 219.613 556.938 224.581 554.792 227.705L550.323 225.83C552.303 222.482 554.743 217.064 556.054 213.208ZM562.342 219.853L567.759 222.405C563.634 228.653 558.156 236.405 553.816 241.195L549.965 238.988C554.194 233.973 559.339 225.828 562.342 219.853ZM547.296 226.204L550.627 221.744C553.523 224.393 556.918 228.053 558.246 230.693L554.575 235.823C553.36 233.072 550.079 229.077 547.296 226.204ZM560.359 233.282L565.018 231.349C567.236 235.171 569.334 240.111 569.987 243.307L564.934 245.573C564.337 242.321 562.408 237.158 560.359 233.282ZM547.06 237.683C552.102 237.433 559.328 237.084 566.331 236.677L566.354 242.165C559.799 242.631 552.964 243.094 547.754 243.455L547.06 237.683ZM561.787 247.346L566.5 245.918C567.825 249.062 568.921 253.157 569.297 255.847L564.303 257.442C564.04 254.696 563 250.546 561.787 247.346ZM549.419 246.041L554.789 246.969C554.198 252.342 552.989 257.878 551.343 261.453C550.228 260.718 547.77 259.64 546.485 259.072C548.073 255.777 548.943 250.742 549.419 246.041ZM555.611 240.702L561.378 240.736L561.23 265.767L555.462 265.733L555.611 240.702ZM607.735 223.874L629.463 224.003L629.426 230.275L607.698 230.146L607.735 223.874ZM615.744 214.29L622.016 214.327L621.941 227.039L615.669 227.002L615.744 214.29ZM642.679 223.97L658.975 224.066L658.937 230.45L642.641 230.354L642.679 223.97ZM633.13 257.234L653.178 257.352L653.14 263.624L633.093 263.506L633.13 257.234ZM639.381 213.59L646.325 213.631L646.152 242.807L639.208 242.765L639.381 213.59ZM630.264 239.968L656.92 240.126L656.766 266.054L649.934 266.013L650.051 246.358L636.723 246.279L636.605 266.158L630.109 266.12L630.264 239.968ZM606.322 254.387C612.152 253.413 621.011 251.674 629.253 249.875L629.889 256.094C622.206 257.897 613.907 259.752 607.626 261.114L606.322 254.387ZM609.138 232.787L614.464 231.811C615.828 237.867 616.68 245.432 616.761 250.64L610.986 251.726C611.128 246.631 610.279 238.786 609.138 232.787ZM621.636 231.293L628.181 232.452C627.243 239.558 625.85 247.782 624.643 252.983L619.05 251.83C620.202 246.405 621.318 237.675 621.636 231.293ZM677.172 226.991L671.2 217.987L679.811 218.038L683.794 227.03L677.172 226.991ZM716.231 245.399L716.204 249.913C713.911 249.9 712.31 250.347 711.403 251.257C710.497 252.153 710.037 253.602 710.025 255.604L710.003 259.342C709.987 262.007 709.577 264.099 708.773 265.619C707.982 267.139 706.894 268.253 705.511 268.961C704.142 269.669 702.555 270.11 700.751 270.285C698.96 270.473 697.043 270.561 695.002 270.549L695.044 263.41C696.635 263.419 697.823 263.234 698.607 262.854C699.405 262.475 699.939 261.895 700.208 261.114C700.478 260.333 700.617 259.346 700.624 258.153L700.654 253.062C700.66 252.055 700.871 251.088 701.288 250.163C701.704 249.237 702.465 248.42 703.569 247.71C704.674 246.988 706.242 246.42 708.273 246.008C710.317 245.583 712.97 245.38 716.231 245.399ZM695.299 220.416C697.341 220.429 699.256 220.539 701.044 220.749C702.846 220.945 704.428 221.405 705.789 222.129C707.164 222.853 708.237 223.98 709.011 225.509C709.797 227.039 710.182 229.136 710.166 231.8L710.144 235.559C710.132 237.547 710.575 239.002 711.471 239.922C712.367 240.842 713.961 241.309 716.255 241.322L716.228 245.817C712.967 245.797 710.317 245.569 708.278 245.133C706.252 244.697 704.691 244.111 703.595 243.375C702.499 242.639 701.748 241.806 701.343 240.876C700.937 239.946 700.737 238.977 700.743 237.969L700.774 232.878C700.781 231.685 700.654 230.697 700.393 229.913C700.133 229.129 699.606 228.543 698.813 228.153C698.033 227.764 696.848 227.565 695.257 227.556L695.299 220.416ZM716.255 241.322L716.204 249.913L708.27 249.866L708.32 241.275L716.255 241.322Z" fill="#F4EFE9" fill-opacity="0.72"/>
</g>
<defs>
<filter id="filter0_i_183_963" x="-4.2" y="2.71089" width="915.2" height="442.176" filterUnits="userSpaceOnUse" color-interpolation-filters="sRGB">
<feFlood flood-opacity="0" result="BackgroundImageFix"/>
<feBlend mode="normal" in="SourceGraphic" in2="BackgroundImageFix" result="shape"/>
<feColorMatrix in="SourceAlpha" type="matrix" values="0 0 0 0 0 0 0 0 0 0 0 0 0 0 0 0 0 0 127 0" result="hardAlpha"/>
<feOffset dx="-34" dy="-21"/>
<feGaussianBlur stdDeviation="2.1"/>
<feComposite in2="hardAlpha" operator="arithmetic" k2="-1" k3="1"/>
<feColorMatrix type="matrix" values="0 0 0 0 0.0330992 0 0 0 0 0.248246 0 0 0 0 0.284104 0 0 0 0.33 0"/>
<feBlend mode="normal" in2="shape" result="effect1_innerShadow_183_963"/>
</filter>
<filter id="filter1_i_183_963" x="196.106" y="210.964" width="521.31" height="61.2104" filterUnits="userSpaceOnUse" color-interpolation-filters="sRGB">
<feFlood flood-opacity="0" result="BackgroundImageFix"/>
<feBlend mode="normal" in="SourceGraphic" in2="BackgroundImageFix" result="shape"/>
<feColorMatrix in="SourceAlpha" type="matrix" values="0 0 0 0 0 0 0 0 0 0 0 0 0 0 0 0 0 0 127 0" result="hardAlpha"/>
<feOffset dx="1" dy="4"/>
<feGaussianBlur stdDeviation="0.75"/>
<feComposite in2="hardAlpha" operator="arithmetic" k2="-1" k3="1"/>
<feColorMatrix type="matrix" values="0 0 0 0 0.0277049 0 0 0 0 0.168473 0 0 0 0 0.191935 0 0 0 0.41 0"/>
<feBlend mode="normal" in2="shape" result="effect1_innerShadow_183_963"/>
</filter>
</defs>
</svg>
